<svg id="CABEZAL" xmlns="http://www.w3.org/2000/svg" viewBox="0 0 255.2 86.48"><defs><style>.cls-1{fill:#242020;}.cls-2{fill:#4e4084;}.cls-3{fill:#ffc627;}.cls-4{fill:#ff4338;}.cls-5{fill:#00c18b;}</style></defs><title>Cudecoop_web_programación_inicio</title><path class="cls-1" d="M582.57,107.24q-0.09-.5-0.32-2.91a18.6,18.6,0,0,0-5.06-.88,8.89,8.89,0,0,0-3.44.65,7.64,7.64,0,0,0-2.69,1.86,8.57,8.57,0,0,0-1.76,2.94,11.3,11.3,0,0,0-.63,3.89,11.62,11.62,0,0,0,.63,4,8.76,8.76,0,0,0,1.71,2.93,7.31,7.31,0,0,0,2.55,1.82,7.87,7.87,0,0,0,3.15.63,13.82,13.82,0,0,0,1.82-.11,7.76,7.76,0,0,0,1.5-.35,6.68,6.68,0,0,0,1.3-.61,8.12,8.12,0,0,0,1.22-.93,1.72,1.72,0,0,1,.39-0.27,1,1,0,0,1,.44-0.1,0.92,0.92,0,0,1,.7.31l1.94,2.11a10.68,10.68,0,0,1-4,3.06,13.67,13.67,0,0,1-5.65,1.06,13.35,13.35,0,0,1-5.31-1,11.68,11.68,0,0,1-4-2.8,12.26,12.26,0,0,1-2.56-4.29,16.08,16.08,0,0,1-.89-5.44,14.65,14.65,0,0,1,1-5.47,12.35,12.35,0,0,1,7.08-7.07,14.77,14.77,0,0,1,5.52-1,24.39,24.39,0,0,1,8.31,1.91v6.76h-2.11A0.79,0.79,0,0,1,582.57,107.24Z" transform="translate(-512.34 -54.59)"/><path class="cls-1" d="M614.83,99.55v2.15a1.06,1.06,0,0,1-.92,1.15l-0.23,0-0.55.1-1.08.19v12.24a12.24,12.24,0,0,1-.76,4.37,9.74,9.74,0,0,1-5.65,5.74,13.28,13.28,0,0,1-9.16,0,9.7,9.7,0,0,1-5.64-5.74,12.23,12.23,0,0,1-.76-4.37V103.18L589,103l-0.55-.1-0.23,0a1.05,1.05,0,0,1-.92-1.15V99.55h10.64v2.15a1.06,1.06,0,0,1-.92,1.15l-0.27,0-0.63.1-1.12.19V115.4a8.61,8.61,0,0,0,.41,2.75,6,6,0,0,0,1.18,2.1,5.18,5.18,0,0,0,1.9,1.35,7.1,7.1,0,0,0,5.11,0,5.33,5.33,0,0,0,1.91-1.34,5.85,5.85,0,0,0,1.19-2.09,8.6,8.6,0,0,0,.41-2.75V103.18L606,103l-0.63-.1-0.27,0a1.06,1.06,0,0,1-.92-1.15V99.55h10.64Z" transform="translate(-512.34 -54.59)"/><path class="cls-1" d="M642.33,112.8a14.32,14.32,0,0,1-1,5.35,12,12,0,0,1-7,6.93,14.86,14.86,0,0,1-5.48,1h-12.5V123.9a1.06,1.06,0,0,1,.92-1.15l0.23,0,0.55-.1,1.08-.19V103.18l-1.08-.19-0.55-.1-0.23,0a1.05,1.05,0,0,1-.92-1.15V99.55h12.5a14.76,14.76,0,0,1,5.48,1,12.4,12.4,0,0,1,4.23,2.73,12.19,12.19,0,0,1,2.73,4.19A14.34,14.34,0,0,1,642.33,112.8Zm-5,0a12.17,12.17,0,0,0-.59-3.91A8.3,8.3,0,0,0,635,106a7.2,7.2,0,0,0-2.63-1.84,9,9,0,0,0-3.49-.64h-4.75v18.66h4.75a9,9,0,0,0,3.49-.64,7.19,7.19,0,0,0,2.63-1.84,8.3,8.3,0,0,0,1.67-2.93A12.17,12.17,0,0,0,637.29,112.8Z" transform="translate(-512.34 -54.59)"/><path class="cls-1" d="M663.41,99.55v7H661.3a0.79,0.79,0,0,1-.85-0.68q-0.08-.43-0.27-2.36h-8.52v7.35h9v3.79h-9v7.5h8.52q0.19-1.93.27-2.36a0.79,0.79,0,0,1,.85-0.68h2.11v7H643.92v-2.15a1.06,1.06,0,0,1,.92-1.15l0.23,0,0.55-.1,1.08-.19V103.18l-1.08-.19-0.55-.1-0.23,0a1.06,1.06,0,0,1-.92-1.15V99.55h19.49Z" transform="translate(-512.34 -54.59)"/><path class="cls-1" d="M684,107.24q-0.09-.5-0.32-2.91a18.6,18.6,0,0,0-5.06-.88,8.89,8.89,0,0,0-3.44.65,7.64,7.64,0,0,0-2.69,1.86,8.57,8.57,0,0,0-1.76,2.94,11.3,11.3,0,0,0-.63,3.89,11.62,11.62,0,0,0,.63,4,8.75,8.75,0,0,0,1.71,2.93,7.31,7.31,0,0,0,2.55,1.82,7.87,7.87,0,0,0,3.15.63,13.81,13.81,0,0,0,1.82-.11,7.76,7.76,0,0,0,1.5-.35,6.67,6.67,0,0,0,1.3-.61,8.13,8.13,0,0,0,1.22-.93,1.72,1.72,0,0,1,.39-0.27,1,1,0,0,1,.44-0.1,0.93,0.93,0,0,1,.7.31l1.94,2.11a10.68,10.68,0,0,1-4,3.06,13.67,13.67,0,0,1-5.65,1.06,13.35,13.35,0,0,1-5.31-1,11.68,11.68,0,0,1-4-2.8,12.26,12.26,0,0,1-2.56-4.29,16.07,16.07,0,0,1-.89-5.44,14.65,14.65,0,0,1,1-5.47,12.35,12.35,0,0,1,7.08-7.07,14.76,14.76,0,0,1,5.52-1,24.39,24.39,0,0,1,8.31,1.91v6.76h-2.11A0.79,0.79,0,0,1,684,107.24Z" transform="translate(-512.34 -54.59)"/><path class="cls-1" d="M714.56,118.2a12.78,12.78,0,0,1-2.73,4.3,12.37,12.37,0,0,1-4.23,2.83,15.3,15.3,0,0,1-11,0,12.44,12.44,0,0,1-4.25-2.83,12.72,12.72,0,0,1-2.74-4.3,15.48,15.48,0,0,1,0-10.8,12.71,12.71,0,0,1,2.74-4.3,12.45,12.45,0,0,1,4.25-2.83,14.36,14.36,0,0,1,5.49-1,14.16,14.16,0,0,1,5.48,1,12.54,12.54,0,0,1,4.23,2.83,12.67,12.67,0,0,1,2.73,4.29A15.47,15.47,0,0,1,714.56,118.2Zm-4.66-9.31a8.28,8.28,0,0,0-1.66-2.94,7.14,7.14,0,0,0-2.63-1.85,9.85,9.85,0,0,0-7,0,7.21,7.21,0,0,0-2.65,1.85,8.32,8.32,0,0,0-1.68,2.94,13.36,13.36,0,0,0,0,7.83,8.22,8.22,0,0,0,1.68,2.93,7.25,7.25,0,0,0,2.65,1.84,9.85,9.85,0,0,0,7,0,7.18,7.18,0,0,0,2.63-1.84,8.17,8.17,0,0,0,1.66-2.93A13.54,13.54,0,0,0,709.9,108.89Z" transform="translate(-512.34 -54.59)"/><path class="cls-1" d="M743.72,118.2a12.78,12.78,0,0,1-2.73,4.3,12.36,12.36,0,0,1-4.23,2.83,15.3,15.3,0,0,1-11,0,12.44,12.44,0,0,1-4.25-2.83,12.72,12.72,0,0,1-2.74-4.3,15.48,15.48,0,0,1,0-10.8,12.71,12.71,0,0,1,2.74-4.3,12.44,12.44,0,0,1,4.25-2.83,14.36,14.36,0,0,1,5.49-1,14.16,14.16,0,0,1,5.48,1,12.53,12.53,0,0,1,4.23,2.83,12.68,12.68,0,0,1,2.73,4.29A15.48,15.48,0,0,1,743.72,118.2Zm-4.66-9.31a8.28,8.28,0,0,0-1.66-2.94,7.14,7.14,0,0,0-2.63-1.85,9.85,9.85,0,0,0-7,0,7.21,7.21,0,0,0-2.65,1.85,8.31,8.31,0,0,0-1.68,2.94,13.36,13.36,0,0,0,0,7.83,8.21,8.21,0,0,0,1.68,2.93,7.25,7.25,0,0,0,2.65,1.84,9.85,9.85,0,0,0,7,0,7.18,7.18,0,0,0,2.63-1.84,8.17,8.17,0,0,0,1.66-2.93A13.54,13.54,0,0,0,739.05,108.89Z" transform="translate(-512.34 -54.59)"/><path class="cls-1" d="M767.53,108a9.42,9.42,0,0,1-.64,3.53,7.33,7.33,0,0,1-1.92,2.76,8.94,8.94,0,0,1-3.21,1.8,14.27,14.27,0,0,1-4.51.64H754v5.7l1.08,0.19,0.54,0.1,0.23,0a1.06,1.06,0,0,1,.92,1.15V126H746.28V123.9a1.06,1.06,0,0,1,.92-1.15l0.23,0,0.55-.1,1.08-.19V103.18L748,103l-0.55-.1-0.23,0a1.06,1.06,0,0,1-.92-1.15V99.55h11a15.13,15.13,0,0,1,4.6.62,8.86,8.86,0,0,1,3.21,1.74,6.82,6.82,0,0,1,1.87,2.68A9.35,9.35,0,0,1,767.53,108Zm-4.93,0a5.36,5.36,0,0,0-.33-1.92,3.8,3.8,0,0,0-1-1.47,4.42,4.42,0,0,0-1.67-.93,7.83,7.83,0,0,0-2.36-.32H754v9.51h3.27a7.44,7.44,0,0,0,2.36-.34,4.39,4.39,0,0,0,1.67-1,4,4,0,0,0,1-1.54A5.92,5.92,0,0,0,762.61,108Z" transform="translate(-512.34 -54.59)"/><path class="cls-1" d="M568.8,138.92c-1.67,0-2.61-1.28-2.61-3.59s1-3.78,2.66-3.78a2.71,2.71,0,0,1,1.4.38l-0.27.67a2.33,2.33,0,0,0-1.12-.32c-1.19,0-1.75,1.22-1.75,3,0,1.92.65,2.95,1.84,2.95a2.17,2.17,0,0,0,1.1-.34l0.23,0.68A2.91,2.91,0,0,1,568.8,138.92Z" transform="translate(-512.34 -54.59)"/><path class="cls-1" d="M572.94,138.94c-1.3,0-2-1-2-2.68s0.76-2.79,2.06-2.79,2,1,2,2.69S574.24,138.94,572.94,138.94Zm0-4.79c-0.77,0-1.14.81-1.14,2s0.37,2.11,1.17,2.11,1.14-.81,1.14-2S573.74,134.16,573,134.16Z" transform="translate(-512.34 -54.59)"/><path class="cls-1" d="M578.93,138.83v-3.27c0-.83-0.19-1.39-0.78-1.39a1.57,1.57,0,0,0-1.2.94v3.73h-0.82v-5.24h0.65l0.08,0.77a1.73,1.73,0,0,1,1.46-.89c1.06,0,1.44.9,1.44,1.93v3.43h-0.82Z" transform="translate(-512.34 -54.59)"/><path class="cls-1" d="M582.88,131.68c-0.71,0-.74.62-0.74,1.34v0.57h1v0.65h-1v4.59h-0.82v-4.59h-0.66v-0.65h0.66V133c0-1.24.29-2,1.38-2a2.16,2.16,0,0,1,.57.06v0.61h-0.38Z" transform="translate(-512.34 -54.59)"/><path class="cls-1" d="M587.51,136.3h-2.87c0,1.23.31,2,1.29,2a3.94,3.94,0,0,0,1.36-.25l0.11,0.66a4.74,4.74,0,0,1-1.6.28c-1.38,0-2-.92-2-2.72s0.68-2.75,2-2.75,1.73,0.93,1.73,2.33C587.52,135.91,587.51,136.14,587.51,136.3Zm-1.77-2.19c-0.78,0-1.07.81-1.1,1.59h2C586.7,134.71,586.37,134.1,585.73,134.1Z" transform="translate(-512.34 -54.59)"/><path class="cls-1" d="M591.56,138.83l-0.07-.79a1.7,1.7,0,0,1-1.44.91c-1.19,0-1.63-1.16-1.63-2.56s0.62-2.86,2.09-2.86a3.82,3.82,0,0,1,.88.09v-2.5h0.82v7.72h-0.65Zm-0.18-4.47a2,2,0,0,0-.88-0.19c-0.82,0-1.22.8-1.22,2.15,0,0.95.15,1.93,0.92,1.93,0.37,0,.63-0.16,1.17-0.94v-3Z" transform="translate(-512.34 -54.59)"/><path class="cls-1" d="M597.07,136.3h-2.87c0,1.23.31,2,1.29,2a3.94,3.94,0,0,0,1.36-.25l0.11,0.66a4.74,4.74,0,0,1-1.6.28c-1.38,0-2-.92-2-2.72s0.68-2.75,2-2.75,1.73,0.93,1.73,2.33C597.08,135.91,597.07,136.14,597.07,136.3Zm-1.77-2.19c-0.78,0-1.07.81-1.1,1.59h2C596.26,134.71,595.94,134.1,595.3,134.1Z" transform="translate(-512.34 -54.59)"/><path class="cls-1" d="M600.48,134.32a1.35,1.35,0,0,0-.41-0.08c-0.28,0-.5.3-1,1.1v3.49h-0.82v-5.24h0.65l0.08,1c0.45-.77.72-1.07,1.13-1.07a1.48,1.48,0,0,1,.5.09Z" transform="translate(-512.34 -54.59)"/><path class="cls-1" d="M604,138.83l-0.05-.61a1.76,1.76,0,0,1-1.36.72,1.34,1.34,0,0,1-1.4-1.49c0-1.12.81-1.65,2-1.65h0.65v-0.48c0-.8-0.24-1.18-1-1.18a2.88,2.88,0,0,0-1.24.31l-0.16-.63a3.84,3.84,0,0,1,1.52-.34,1.5,1.5,0,0,1,1.65,1.68v3.68H604Zm-0.15-2.44h-0.74a1,1,0,0,0-1.08,1,0.75,0.75,0,0,0,.75.89,1.51,1.51,0,0,0,1.07-.72v-1.18Z" transform="translate(-512.34 -54.59)"/><path class="cls-1" d="M607.68,138.92c-1.33,0-1.92-1-1.92-2.64,0-1.81.79-2.8,2-2.8a2.18,2.18,0,0,1,1.07.27l-0.19.65a1.85,1.85,0,0,0-.84-0.23c-0.83,0-1.18.81-1.18,2,0,1.36.4,2,1.2,2a1.8,1.8,0,0,0,.9-0.22l0.14,0.65A2.49,2.49,0,0,1,607.68,138.92Z" transform="translate(-512.34 -54.59)"/><path class="cls-1" d="M609.59,138.83v-4.59h-0.66v-0.65h1.48v5.24h-0.82Zm0.37-6.32a0.58,0.58,0,1,1,.56-0.58A0.55,0.55,0,0,1,610,132.51Z" transform="translate(-512.34 -54.59)"/><path class="cls-1" d="M613.54,138.94c-1.3,0-2-1-2-2.68s0.76-2.79,2.06-2.79,2,1,2,2.69S614.83,138.94,613.54,138.94Zm0-4.79c-0.77,0-1.14.81-1.14,2s0.37,2.11,1.17,2.11,1.14-.81,1.14-2S614.34,134.16,613.55,134.16Zm-0.06-1.36-0.44-.31,1-1.45,0.64,0.43Z" transform="translate(-512.34 -54.59)"/><path class="cls-1" d="M619.53,138.83v-3.27c0-.83-0.19-1.39-0.78-1.39a1.57,1.57,0,0,0-1.2.94v3.73h-0.82v-5.24h0.65l0.08,0.77a1.73,1.73,0,0,1,1.46-.89c1.06,0,1.44.9,1.44,1.93v3.43h-0.82Z" transform="translate(-512.34 -54.59)"/><path class="cls-1" d="M626.28,138.93c-1.34,0-2.17-.82-2.17-2.58v-4.71H625v4.64c0,1.35.53,1.94,1.36,1.94s1.36-.61,1.36-1.94v-4.64h0.83v4.6C628.51,138.12,627.62,138.93,626.28,138.93Z" transform="translate(-512.34 -54.59)"/><path class="cls-1" d="M632.22,134.32a1.35,1.35,0,0,0-.41-0.08c-0.28,0-.5.3-1,1.1v3.49H630v-5.24h0.65l0.08,1c0.45-.77.72-1.07,1.13-1.07a1.48,1.48,0,0,1,.5.09Z" transform="translate(-512.34 -54.59)"/><path class="cls-1" d="M636.17,138.83l-0.08-.77a1.74,1.74,0,0,1-1.46.89c-1.07,0-1.44-.9-1.44-1.93v-3.43H634v3.26c0,0.83.19,1.4,0.78,1.4a1.6,1.6,0,0,0,1.2-.94v-3.73h0.82v5.24h-0.65Z" transform="translate(-512.34 -54.59)"/><path class="cls-1" d="M639.72,141.07a6.59,6.59,0,0,1-1.2-.11l0-.61c0.36,0,.76,0,1.12,0,0.93,0,1.25-.34,1.25-1.65v-0.67a1.6,1.6,0,0,1-1.37.81c-1.16,0-1.6-1.15-1.6-2.52,0-1.54.64-2.85,2.16-2.85a5,5,0,0,1,1.63.29v4.93C641.74,140.38,641.19,141.07,639.72,141.07Zm1.19-6.7a2,2,0,0,0-.86-0.19c-0.83,0-1.23.78-1.23,2.12,0,0.94.15,1.9,0.92,1.9,0.37,0,.63-0.16,1.17-0.94v-2.89Z" transform="translate(-512.34 -54.59)"/><path class="cls-1" d="M646.09,138.83l-0.08-.77a1.74,1.74,0,0,1-1.46.89c-1.07,0-1.44-.9-1.44-1.93v-3.43h0.82v3.26c0,0.83.19,1.4,0.78,1.4a1.6,1.6,0,0,0,1.2-.94v-3.73h0.82v5.24h-0.65Z" transform="translate(-512.34 -54.59)"/><path class="cls-1" d="M650.66,138.83l-0.05-.61a1.76,1.76,0,0,1-1.36.72,1.34,1.34,0,0,1-1.4-1.49c0-1.12.81-1.65,2-1.65h0.65v-0.48c0-.8-0.24-1.18-1-1.18a2.88,2.88,0,0,0-1.24.31l-0.16-.63a3.84,3.84,0,0,1,1.52-.34,1.5,1.5,0,0,1,1.65,1.68v3.68h-0.66Zm-0.15-2.44h-0.74a1,1,0,0,0-1.08,1,0.75,0.75,0,0,0,.75.89,1.51,1.51,0,0,0,1.07-.72v-1.18Z" transform="translate(-512.34 -54.59)"/><path class="cls-1" d="M654.57,138.83c-0.7,1.79-1.11,2.23-1.78,2.23a1.91,1.91,0,0,1-.55-0.08l0-.61h0.45c0.32,0,.55-0.29,1-1.52a43.28,43.28,0,0,1-1.5-5.26h0.87c0.32,1.54.7,2.9,1.11,4.27h0a35.6,35.6,0,0,0,1-4.27H656A33.16,33.16,0,0,1,654.57,138.83Z" transform="translate(-512.34 -54.59)"/><path class="cls-1" d="M659.45,138.83l-0.05-.61a1.76,1.76,0,0,1-1.36.72,1.34,1.34,0,0,1-1.4-1.49c0-1.12.81-1.65,2-1.65h0.65v-0.48c0-.8-0.24-1.18-1-1.18a2.88,2.88,0,0,0-1.24.31l-0.16-.63a3.84,3.84,0,0,1,1.52-.34,1.5,1.5,0,0,1,1.65,1.68v3.68h-0.66Zm-0.15-2.44h-0.74a1,1,0,0,0-1.08,1,0.75,0.75,0,0,0,.75.89,1.51,1.51,0,0,0,1.07-.72v-1.18Z" transform="translate(-512.34 -54.59)"/><path class="cls-1" d="M666.68,138.83l-0.07-.79a1.7,1.7,0,0,1-1.44.91c-1.19,0-1.63-1.16-1.63-2.56s0.62-2.86,2.09-2.86a3.82,3.82,0,0,1,.87.09v-2.5h0.82v7.72h-0.65Zm-0.18-4.47a2,2,0,0,0-.87-0.19c-0.82,0-1.22.8-1.22,2.15,0,0.95.15,1.93,0.92,1.93,0.37,0,.63-0.16,1.17-0.94v-3Z" transform="translate(-512.34 -54.59)"/><path class="cls-1" d="M672.18,136.3h-2.87c0,1.23.31,2,1.29,2A3.94,3.94,0,0,0,672,138l0.11,0.66a4.74,4.74,0,0,1-1.6.28c-1.38,0-2-.92-2-2.72s0.68-2.75,2-2.75,1.73,0.93,1.73,2.33C672.19,135.91,672.18,136.14,672.18,136.3Zm-1.77-2.19c-0.78,0-1.07.81-1.1,1.59h2C671.38,134.71,671.05,134.1,670.41,134.1Z" transform="translate(-512.34 -54.59)"/><path class="cls-1" d="M675.76,138.83v-7.19h3.18v0.7h-2.34v2.39h2v0.69h-2v2.7H679v0.71h-3.22Z" transform="translate(-512.34 -54.59)"/><path class="cls-1" d="M683.06,138.83v-3.27c0-.83-0.19-1.39-0.78-1.39a1.57,1.57,0,0,0-1.2.94v3.73h-0.82v-5.24h0.65l0.08,0.77a1.74,1.74,0,0,1,1.46-.89c1.06,0,1.44.9,1.44,1.93v3.43h-0.82Z" transform="translate(-512.34 -54.59)"/><path class="cls-1" d="M686.54,138.91c-0.66,0-1.11-.27-1.11-1.33v-3.35h-0.64v-0.65h0.63l0.2-1.52h0.64v1.52h1v0.65h-1v3.1c0,0.79.21,0.89,0.65,0.89h0.37v0.6A2.93,2.93,0,0,1,686.54,138.91Z" transform="translate(-512.34 -54.59)"/><path class="cls-1" d="M688.52,138.83v-4.59h-0.66v-0.65h1.48v5.24h-0.82Zm0.37-6.32a0.58,0.58,0,1,1,.56-0.58A0.55,0.55,0,0,1,688.89,132.51Z" transform="translate(-512.34 -54.59)"/><path class="cls-1" d="M693.61,138.83l-0.07-.79a1.7,1.7,0,0,1-1.44.91c-1.19,0-1.63-1.16-1.63-2.56s0.62-2.86,2.09-2.86a3.82,3.82,0,0,1,.87.09v-2.5h0.82v7.72h-0.65Zm-0.18-4.47a2,2,0,0,0-.87-0.19c-0.82,0-1.22.8-1.22,2.15,0,0.95.15,1.93,0.92,1.93,0.37,0,.63-0.16,1.17-0.94v-3Z" transform="translate(-512.34 -54.59)"/><path class="cls-1" d="M698.18,138.83l-0.05-.61a1.76,1.76,0,0,1-1.36.72,1.34,1.34,0,0,1-1.4-1.49c0-1.12.81-1.65,2-1.65H698v-0.48c0-.8-0.24-1.18-1-1.18a2.88,2.88,0,0,0-1.24.31l-0.16-.63a3.84,3.84,0,0,1,1.52-.34,1.5,1.5,0,0,1,1.65,1.68v3.68h-0.66ZM698,136.39h-0.74a1,1,0,0,0-1.08,1,0.75,0.75,0,0,0,.75.89,1.51,1.51,0,0,0,1.07-.72v-1.18Z" transform="translate(-512.34 -54.59)"/><path class="cls-1" d="M703.09,138.83L703,138a1.7,1.7,0,0,1-1.44.91c-1.19,0-1.63-1.16-1.63-2.56s0.62-2.86,2.09-2.86a3.83,3.83,0,0,1,.88.09v-2.5h0.82v7.72h-0.65Zm-0.18-4.47a2,2,0,0,0-.88-0.19c-0.82,0-1.22.8-1.22,2.15,0,0.95.15,1.93,0.92,1.93,0.37,0,.63-0.16,1.17-0.94v-3Z" transform="translate(-512.34 -54.59)"/><path class="cls-1" d="M708.6,136.3h-2.87c0,1.23.31,2,1.29,2a3.94,3.94,0,0,0,1.36-.25l0.11,0.66a4.74,4.74,0,0,1-1.6.28c-1.38,0-2-.92-2-2.72s0.68-2.75,2-2.75,1.73,0.93,1.73,2.33C708.61,135.91,708.6,136.14,708.6,136.3Zm-1.77-2.19c-0.78,0-1.07.81-1.1,1.59h2C707.8,134.71,707.47,134.1,706.83,134.1Z" transform="translate(-512.34 -54.59)"/><path class="cls-1" d="M710.7,138.94a3.35,3.35,0,0,1-1.17-.21l0.11-.7a3,3,0,0,0,1,.23,0.7,0.7,0,0,0,.81-0.71,1.32,1.32,0,0,0-.86-1.11,1.76,1.76,0,0,1-1-1.54,1.39,1.39,0,0,1,1.54-1.42,3.13,3.13,0,0,1,1,.15l-0.11.68a2.35,2.35,0,0,0-.82-0.18,0.67,0.67,0,0,0-.74.67,1.11,1.11,0,0,0,.74,1,1.86,1.86,0,0,1,1.19,1.64A1.45,1.45,0,0,1,710.7,138.94Z" transform="translate(-512.34 -54.59)"/><path class="cls-1" d="M718.14,138.92c-1.67,0-2.61-1.28-2.61-3.59s1-3.78,2.66-3.78a2.71,2.71,0,0,1,1.4.38l-0.27.67a2.33,2.33,0,0,0-1.12-.32c-1.19,0-1.75,1.22-1.75,3,0,1.92.65,2.95,1.84,2.95a2.17,2.17,0,0,0,1.1-.34l0.23,0.68A2.91,2.91,0,0,1,718.14,138.92Z" transform="translate(-512.34 -54.59)"/><path class="cls-1" d="M722.28,138.94c-1.3,0-2-1-2-2.68s0.76-2.79,2.06-2.79,2,1,2,2.69S723.58,138.94,722.28,138.94Zm0-4.79c-0.77,0-1.14.81-1.14,2s0.37,2.11,1.17,2.11,1.14-.81,1.14-2S723.08,134.16,722.29,134.16Z" transform="translate(-512.34 -54.59)"/><path class="cls-1" d="M727.19,138.94c-1.3,0-2-1-2-2.68s0.76-2.79,2.06-2.79,2,1,2,2.69S728.49,138.94,727.19,138.94Zm0-4.79c-0.77,0-1.14.81-1.14,2s0.37,2.11,1.17,2.11,1.14-.81,1.14-2S728,134.16,727.2,134.16Z" transform="translate(-512.34 -54.59)"/><path class="cls-1" d="M732.07,138.9a3.56,3.56,0,0,1-.88-0.11V141h-0.82v-7.38H731l0.07,0.79a1.67,1.67,0,0,1,1.44-.91c1.2,0,1.63,1.16,1.63,2.55S733.54,138.9,732.07,138.9Zm0.3-4.74c-0.37,0-.63.16-1.17,0.94V138a1.85,1.85,0,0,0,.88.2c0.82,0,1.21-.8,1.21-2.15C733.28,135.14,733.13,134.17,732.37,134.17Z" transform="translate(-512.34 -54.59)"/><path class="cls-1" d="M738.76,136.3h-2.87c0,1.23.31,2,1.29,2a3.94,3.94,0,0,0,1.36-.25l0.11,0.66a4.74,4.74,0,0,1-1.6.28c-1.38,0-2-.92-2-2.72s0.68-2.75,2-2.75,1.73,0.93,1.73,2.33C738.77,135.91,738.76,136.14,738.76,136.3ZM737,134.1c-0.78,0-1.07.81-1.1,1.59h2C738,134.71,737.63,134.1,737,134.1Z" transform="translate(-512.34 -54.59)"/><path class="cls-1" d="M742.17,134.32a1.35,1.35,0,0,0-.41-0.08c-0.28,0-.5.3-1,1.1v3.49h-0.82v-5.24h0.65l0.08,1c0.45-.77.72-1.07,1.13-1.07a1.48,1.48,0,0,1,.5.09Z" transform="translate(-512.34 -54.59)"/><path class="cls-1" d="M745.69,138.83l-0.05-.61a1.76,1.76,0,0,1-1.36.72,1.34,1.34,0,0,1-1.4-1.49c0-1.12.81-1.65,2-1.65h0.65v-0.48c0-.8-0.24-1.18-1-1.18a2.88,2.88,0,0,0-1.24.31l-0.16-.63a3.84,3.84,0,0,1,1.52-.34,1.5,1.5,0,0,1,1.65,1.68v3.68h-0.66Zm-0.15-2.44H744.8a1,1,0,0,0-1.08,1,0.75,0.75,0,0,0,.75.89,1.51,1.51,0,0,0,1.07-.72v-1.18Z" transform="translate(-512.34 -54.59)"/><path class="cls-1" d="M749,138.91c-0.66,0-1.11-.27-1.11-1.33v-3.35h-0.64v-0.65h0.63l0.2-1.52h0.64v1.52h1v0.65h-1v3.1c0,0.79.21,0.89,0.65,0.89h0.37v0.6A2.93,2.93,0,0,1,749,138.91Z" transform="translate(-512.34 -54.59)"/><path class="cls-1" d="M751,138.83v-4.59h-0.66v-0.65h1.48v5.24H751Zm0.37-6.32a0.58,0.58,0,1,1,.56-0.58A0.55,0.55,0,0,1,751.36,132.51Z" transform="translate(-512.34 -54.59)"/><path class="cls-1" d="M755.06,138.83h-0.9a45.14,45.14,0,0,1-1.43-5.24h0.86c0.31,1.5.66,2.9,1.07,4.3h0a40.06,40.06,0,0,0,1-4.3h0.82A40.82,40.82,0,0,1,755.06,138.83Z" transform="translate(-512.34 -54.59)"/><path class="cls-1" d="M760,138.83l-0.05-.61a1.76,1.76,0,0,1-1.36.72,1.34,1.34,0,0,1-1.4-1.49c0-1.12.81-1.65,2-1.65h0.65v-0.48c0-.8-0.24-1.18-1-1.18a2.88,2.88,0,0,0-1.24.31l-0.16-.63a3.84,3.84,0,0,1,1.52-.34,1.5,1.5,0,0,1,1.65,1.68v3.68H760Zm-0.15-2.44h-0.74a1,1,0,0,0-1.08,1,0.75,0.75,0,0,0,.75.89,1.51,1.51,0,0,0,1.07-.72v-1.18Z" transform="translate(-512.34 -54.59)"/><path class="cls-1" d="M762.91,138.94a3.35,3.35,0,0,1-1.17-.21l0.11-.7a3,3,0,0,0,1,.23,0.7,0.7,0,0,0,.81-0.71,1.32,1.32,0,0,0-.86-1.11,1.76,1.76,0,0,1-1-1.54,1.39,1.39,0,0,1,1.54-1.42,3.12,3.12,0,0,1,1,.15l-0.11.68a2.35,2.35,0,0,0-.82-0.18,0.67,0.67,0,0,0-.74.67,1.11,1.11,0,0,0,.74,1,1.86,1.86,0,0,1,1.19,1.64A1.45,1.45,0,0,1,762.91,138.94Z" transform="translate(-512.34 -54.59)"/><path class="cls-2" d="M567.74,62s-5.13,1.33-16.9,6.44c-11.54,4.66-39.78,18.85-38.45,34.83,2.13,25.79,48,35.73,48,35.73s-8-6-8.84-7.25c0,0-34.8-9-29.81-31.89,3-12.64,19.65-22.89,28.48-27.24C560.91,66.84,575.08,62,575.08,62h-7.34Z" transform="translate(-512.34 -54.59)"/><path class="cls-3" d="M547.28,121.15s-7.34-33.52,49.28-41.93c43.6-6.47,70.7,5.36,70.7,5.36l53.82-11.92s-76.31-15.24-131.46-2.41C511.14,92.36,547.28,121.15,547.28,121.15Z" transform="translate(-512.34 -54.59)"/><path class="cls-4" d="M536.74,108.45C531.83,85.39,574,68.86,614.81,63.56c26.4-3.57,56.87-1.39,56.87-1.39l-4.13-3.1s-8.61,0-20.93.34c-48.72-.34-108.7,15.74-114.78,42.29-2.14,9.31,5.16,17.84,16.59,23.68a13.8,13.8,0,0,1-.86-2.86C539.64,117.68,537.89,112.89,536.74,108.45Z" transform="translate(-512.34 -54.59)"/><path class="cls-5" d="M548.65,126.89c-2.44-1.06-35.57-14.87-11-39.51,8.06-8.09,23.95-15.52,30.59-17.71,19.38-7.3,64.39-13.45,64.39-13.45l-5.44-1.63s-33.82,4.86-54.85,11.26c-42.34,12.6-72.3,45-21.65,64.27a15,15,0,0,1-2-3.24" transform="translate(-512.34 -54.59)"/></svg>